<svg width="586" height="253" viewBox="0 0 586 253" version="1.1" xmlns="http://www.w3.org/2000/svg" xmlns:xlink="http://www.w3.org/1999/xlink">
<title>Vector</title>
<desc>Created using Figma</desc>
<g id="Canvas" transform="translate(395 483)">
<g id="Vector">
<use xlink:href="#path0_fill" transform="translate(-395 -483)" fill="#FFFFFF"/>
<use xlink:href="#path1_fill" transform="translate(-395 -483)" fill="#FFFFFF"/>
<use xlink:href="#path2_fill" transform="translate(-395 -483)" fill="#FFFFFF"/>
<use xlink:href="#path3_fill" transform="translate(-395 -483)" fill="#FFFFFF"/>
<use xlink:href="#path4_fill" transform="translate(-395 -483)" fill="#FFFFFF"/>
<use xlink:href="#path5_fill" transform="translate(-395 -483)" fill="#FFFFFF"/>
<use xlink:href="#path6_fill" transform="translate(-395 -483)" fill="#FFFFFF"/>
<use xlink:href="#path7_fill" transform="translate(-395 -483)" fill="#FFFFFF"/>
<use xlink:href="#path8_fill" transform="translate(-395 -483)" fill="#FFFFFF"/>
<use xlink:href="#path9_fill" transform="translate(-395 -483)" fill="#FFFFFF"/>
<use xlink:href="#path10_fill" transform="translate(-395 -483)" fill="#FFFFFF"/>
<use xlink:href="#path11_fill" transform="translate(-395 -483)" fill="#FFFFFF"/>
<use xlink:href="#path12_fill" transform="translate(-395 -483)" fill="#FFFFFF"/>
<use xlink:href="#path13_fill" transform="translate(-395 -483)" fill="#FFFFFF"/>
<use xlink:href="#path14_fill" transform="translate(-395 -483)" fill="#FFFFFF"/>
<use xlink:href="#path15_fill" transform="translate(-395 -483)" fill="#FFFFFF"/>
<use xlink:href="#path16_fill" transform="translate(-395 -483)" fill="#FFFFFF"/>
<use xlink:href="#path17_fill" transform="translate(-395 -483)" fill="#FFFFFF"/>
<use xlink:href="#path18_fill" transform="translate(-395 -483)" fill="#FFFFFF"/>
</g>
</g>
<defs>
<path id="path0_fill" d="M 0 47.75L 26.7578 47.75L 26.7578 154L 0 154L 0 47.75Z"/>
<path id="path1_fill" d="M 40.9766 47.75L 67.5391 47.75L 67.5391 58.5898C 73.5938 53.5117 79.0625 49.9961 83.9453 48.043C 88.8932 46.0247 93.9388 45.0156 99.082 45.0156C 109.629 45.0156 118.581 48.694 125.938 56.0508C 132.122 62.3008 135.215 71.5456 135.215 83.7852L 135.215 154L 108.848 154L 108.848 107.418C 108.848 94.7227 108.262 86.2917 107.09 82.125C 105.983 77.9583 103.997 74.8008 101.133 72.6523C 98.3333 70.4388 94.8503 69.332 90.6836 69.332C 85.2799 69.332 80.625 71.1549 76.7188 74.8008C 72.8776 78.3815 70.2083 83.362 68.7109 89.7422C 67.9297 93.0625 67.5391 100.257 67.5391 111.324L 67.5391 154L 40.9766 154L 40.9766 47.75Z"/>
<path id="path2_fill" d="M 200.996 45.0156C 211.022 45.0156 220.43 47.5221 229.219 52.5352C 238.073 57.5482 244.974 64.3516 249.922 72.9453C 254.87 81.5391 257.344 90.8164 257.344 100.777C 257.344 110.803 254.837 120.178 249.824 128.902C 244.876 137.626 238.105 144.462 229.512 149.41C 220.918 154.293 211.445 156.734 201.094 156.734C 185.859 156.734 172.839 151.331 162.031 140.523C 151.289 129.651 145.918 116.467 145.918 100.973C 145.918 84.3711 152.005 70.5365 164.18 59.4688C 174.857 49.8333 187.129 45.0156 200.996 45.0156ZM 201.387 70.1133C 193.118 70.1133 186.217 73.0104 180.684 78.8047C 175.215 84.5339 172.48 91.8906 172.48 100.875C 172.48 110.12 175.182 117.607 180.586 123.336C 186.055 129.065 192.956 131.93 201.289 131.93C 209.622 131.93 216.556 129.033 222.09 123.238C 227.624 117.444 230.391 109.99 230.391 100.875C 230.391 91.7604 227.656 84.3711 222.188 78.707C 216.784 72.9779 209.85 70.1133 201.387 70.1133Z"/>
<path id="path3_fill" d="M 257.793 47.75L 284.941 47.75L 311.797 110.445L 338.555 47.75L 365.605 47.75L 320.391 154L 303.105 154L 257.793 47.75Z"/>
<path id="path4_fill" d="M 477.773 108.59L 392.129 108.59C 393.366 116.142 396.654 122.164 401.992 126.656C 407.396 131.083 414.264 133.297 422.598 133.297C 432.559 133.297 441.12 129.814 448.281 122.848L 470.742 133.395C 465.143 141.337 458.438 147.229 450.625 151.07C 442.812 154.846 433.535 156.734 422.793 156.734C 406.126 156.734 392.552 151.493 382.07 141.012C 371.589 130.465 366.348 117.281 366.348 101.461C 366.348 85.25 371.556 71.806 381.973 61.1289C 392.454 50.3867 405.573 45.0156 421.328 45.0156C 438.06 45.0156 451.667 50.3867 462.148 61.1289C 472.63 71.806 477.871 85.9336 477.871 103.512L 477.773 108.59ZM 451.016 87.5938C 449.258 81.6693 445.775 76.8516 440.566 73.1406C 435.423 69.4297 429.434 67.5742 422.598 67.5742C 415.176 67.5742 408.665 69.6576 403.066 73.8242C 399.551 76.4284 396.296 81.0182 393.301 87.5938L 451.016 87.5938Z"/>
<path id="path5_fill" d="M 492.676 47.75L 519.238 47.75L 535.059 47.75L 535.059 70.6992L 519.238 70.6992L 519.238 154L 492.676 154L 492.676 70.6992L 479.004 70.6992L 479.004 47.75L 492.676 47.75Z"/>
<path id="path6_fill" d="M 542.637 47.75L 569.199 47.75L 585.02 47.75L 585.02 70.6992L 569.199 70.6992L 569.199 154L 542.637 154L 542.637 70.6992L 528.965 70.6992L 528.965 47.75L 542.637 47.75Z"/>
<path id="path7_fill" d="M 0.453125 0L 26.4531 0L 26.4531 26L 0.453125 26L 0.453125 0Z"/>
<path id="path8_fill" d="M 492.453 0L 518.453 0L 518.453 26L 492.453 26L 492.453 0Z"/>
<path id="path9_fill" d="M 542.453 0L 568.453 0L 568.453 26L 542.453 26L 542.453 0Z"/>
<path id="path10_fill" d="M 47.7969 203.328L 43.4609 206.023C 39.7109 201.049 34.5938 198.562 28.1094 198.562C 22.9271 198.562 18.6172 200.229 15.1797 203.562C 11.7682 206.896 10.0625 210.945 10.0625 215.711C 10.0625 218.81 10.8438 221.727 12.4062 224.461C 13.9948 227.195 16.1562 229.318 18.8906 230.828C 21.651 232.339 24.737 233.094 28.1484 233.094C 34.3984 233.094 39.5026 230.607 43.4609 225.633L 47.7969 228.484C 45.7656 231.531 43.0312 233.901 39.5938 235.594C 36.1823 237.26 32.2891 238.094 27.9141 238.094C 21.1953 238.094 15.6224 235.958 11.1953 231.688C 6.76823 227.417 4.55469 222.221 4.55469 216.102C 4.55469 211.987 5.58333 208.172 7.64062 204.656C 9.72396 201.115 12.5755 198.354 16.1953 196.375C 19.8151 194.396 23.8646 193.406 28.3438 193.406C 31.1562 193.406 33.8646 193.836 36.4688 194.695C 39.099 195.555 41.3255 196.674 43.1484 198.055C 44.9714 199.435 46.5208 201.193 47.7969 203.328Z"/>
<path id="path11_fill" d="M 78.4609 193.406C 84.9974 193.406 90.4141 195.776 94.7109 200.516C 98.6172 204.839 100.57 209.956 100.57 215.867C 100.57 221.805 98.5 227 94.3594 231.453C 90.2448 235.88 84.9453 238.094 78.4609 238.094C 71.9505 238.094 66.625 235.88 62.4844 231.453C 58.3698 227 56.3125 221.805 56.3125 215.867C 56.3125 209.982 58.2656 204.878 62.1719 200.555C 66.4688 195.789 71.8984 193.406 78.4609 193.406ZM 78.4609 198.758C 73.9297 198.758 70.0365 200.438 66.7812 203.797C 63.526 207.156 61.8984 211.219 61.8984 215.984C 61.8984 219.057 62.6406 221.922 64.125 224.578C 65.6094 227.234 67.6146 229.292 70.1406 230.75C 72.6667 232.182 75.4401 232.898 78.4609 232.898C 81.4818 232.898 84.2552 232.182 86.7812 230.75C 89.3073 229.292 91.3125 227.234 92.7969 224.578C 94.2812 221.922 95.0234 219.057 95.0234 215.984C 95.0234 211.219 93.3828 207.156 90.1016 203.797C 86.8464 200.438 82.9661 198.758 78.4609 198.758Z"/>
<path id="path12_fill" d="M 110.727 194.5L 116.156 194.5L 116.156 201.844C 118.057 199.135 120.01 197.156 122.016 195.906C 124.776 194.24 127.68 193.406 130.727 193.406C 132.784 193.406 134.737 193.81 136.586 194.617C 138.435 195.424 139.945 196.505 141.117 197.859C 142.289 199.188 143.305 201.102 144.164 203.602C 145.987 200.268 148.266 197.742 151 196.023C 153.734 194.279 156.677 193.406 159.828 193.406C 162.771 193.406 165.362 194.148 167.602 195.633C 169.867 197.117 171.547 199.188 172.641 201.844C 173.734 204.5 174.281 208.484 174.281 213.797L 174.281 237L 168.695 237L 168.695 213.797C 168.695 209.24 168.37 206.115 167.719 204.422C 167.068 202.703 165.948 201.323 164.359 200.281C 162.797 199.24 160.922 198.719 158.734 198.719C 156.078 198.719 153.643 199.5 151.43 201.062C 149.242 202.625 147.641 204.708 146.625 207.312C 145.609 209.917 145.102 214.266 145.102 220.359L 145.102 237L 139.672 237L 139.672 215.242C 139.672 210.112 139.346 206.635 138.695 204.812C 138.07 202.964 136.964 201.492 135.375 200.398C 133.786 199.279 131.898 198.719 129.711 198.719C 127.185 198.719 124.815 199.487 122.602 201.023C 120.414 202.534 118.786 204.578 117.719 207.156C 116.677 209.734 116.156 213.68 116.156 218.992L 116.156 237L 110.727 237L 110.727 194.5Z"/>
<path id="path13_fill" d="M 185.805 194.5L 191.234 194.5L 191.234 201.844C 193.135 199.135 195.089 197.156 197.094 195.906C 199.854 194.24 202.758 193.406 205.805 193.406C 207.862 193.406 209.815 193.81 211.664 194.617C 213.513 195.424 215.023 196.505 216.195 197.859C 217.367 199.188 218.383 201.102 219.242 203.602C 221.065 200.268 223.344 197.742 226.078 196.023C 228.812 194.279 231.755 193.406 234.906 193.406C 237.849 193.406 240.44 194.148 242.68 195.633C 244.945 197.117 246.625 199.188 247.719 201.844C 248.812 204.5 249.359 208.484 249.359 213.797L 249.359 237L 243.773 237L 243.773 213.797C 243.773 209.24 243.448 206.115 242.797 204.422C 242.146 202.703 241.026 201.323 239.438 200.281C 237.875 199.24 236 198.719 233.812 198.719C 231.156 198.719 228.721 199.5 226.508 201.062C 224.32 202.625 222.719 204.708 221.703 207.312C 220.688 209.917 220.18 214.266 220.18 220.359L 220.18 237L 214.75 237L 214.75 215.242C 214.75 210.112 214.424 206.635 213.773 204.812C 213.148 202.964 212.042 201.492 210.453 200.398C 208.865 199.279 206.977 198.719 204.789 198.719C 202.263 198.719 199.893 199.487 197.68 201.023C 195.492 202.534 193.865 204.578 192.797 207.156C 191.755 209.734 191.234 213.68 191.234 218.992L 191.234 237L 185.805 237L 185.805 194.5Z"/>
<path id="path14_fill" d="M 260.219 194.5L 265.727 194.5L 265.727 214.344C 265.727 219.188 265.987 222.521 266.508 224.344C 267.289 226.948 268.773 229.005 270.961 230.516C 273.174 232.026 275.805 232.781 278.852 232.781C 281.898 232.781 284.477 232.052 286.586 230.594C 288.721 229.109 290.193 227.169 291 224.773C 291.547 223.133 291.82 219.656 291.82 214.344L 291.82 194.5L 297.406 194.5L 297.406 215.359C 297.406 221.219 296.716 225.633 295.336 228.602C 293.982 231.57 291.924 233.901 289.164 235.594C 286.43 237.26 282.992 238.094 278.852 238.094C 274.711 238.094 271.247 237.26 268.461 235.594C 265.701 233.901 263.63 231.557 262.25 228.562C 260.896 225.542 260.219 221.01 260.219 214.969L 260.219 194.5Z"/>
<path id="path15_fill" d="M 309.594 194.5L 315.062 194.5L 315.062 202.117C 317.25 199.201 319.672 197.026 322.328 195.594C 324.984 194.135 327.875 193.406 331 193.406C 334.177 193.406 336.99 194.214 339.438 195.828C 341.911 197.443 343.734 199.617 344.906 202.352C 346.078 205.086 346.664 209.344 346.664 215.125L 346.664 237L 341.234 237L 341.234 216.727C 341.234 211.831 341.026 208.562 340.609 206.922C 339.958 204.109 338.734 202 336.938 200.594C 335.141 199.161 332.797 198.445 329.906 198.445C 326.599 198.445 323.63 199.539 321 201.727C 318.396 203.914 316.677 206.622 315.844 209.852C 315.323 211.961 315.062 215.815 315.062 221.414L 315.062 237L 309.594 237L 309.594 194.5Z"/>
<path id="path16_fill" d="M 360.336 177C 361.586 177 362.654 177.443 363.539 178.328C 364.424 179.214 364.867 180.281 364.867 181.531C 364.867 182.755 364.424 183.81 363.539 184.695C 362.654 185.581 361.586 186.023 360.336 186.023C 359.112 186.023 358.057 185.581 357.172 184.695C 356.286 183.81 355.844 182.755 355.844 181.531C 355.844 180.281 356.286 179.214 357.172 178.328C 358.057 177.443 359.112 177 360.336 177ZM 357.602 194.5L 363.109 194.5L 363.109 237L 357.602 237L 357.602 194.5Z"/>
<path id="path17_fill" d="M 379.203 178.719L 384.711 178.719L 384.711 194.5L 393.383 194.5L 393.383 199.188L 384.711 199.188L 384.711 237L 379.203 237L 379.203 199.188L 371.742 199.188L 371.742 194.5L 379.203 194.5L 379.203 178.719Z"/>
<path id="path18_fill" d="M 396.977 194.5L 402.758 194.5L 417.367 227.234L 431.547 194.5L 437.367 194.5L 412.016 252.547L 406.234 252.547L 414.438 233.797L 396.977 194.5Z"/>
</defs>
</svg>
