<?xml version="1.0" encoding="utf-8"?>
<!-- Generator: Adobe Illustrator 21.0.0, SVG Export Plug-In . SVG Version: 6.00 Build 0)  -->
<svg version="1.1" id="Layer_1" xmlns="http://www.w3.org/2000/svg" xmlns:xlink="http://www.w3.org/1999/xlink" x="0px" y="0px"
	 viewBox="0 0 512 512" style="enable-background:new 0 0 512 512;" xml:space="preserve">
<style type="text/css">
	.st0{fill:#1C0855;}
</style>
<g>
	<g>
		<g>
			<path class="st0" d="M461.9,5.6c-26.8,0-48.8,21.2-50,47.7c-52,17.8-138.7,52.5-272.8,52.5h-22.3c-22.2,0-41.1,14.6-47.6,34.6
				C30,147.2,0,181.4,0,222.6s30,75.5,69.2,82.2c5.6,17.3,20.4,30.4,38.5,33.8l21.3,126.1c4.1,24.2,24.9,41.7,49.4,41.7
				c30.5,0,53.7-27.4,48.7-57.5l-17.7-106c93.9,9.2,145.5,29.5,202.4,49c1.3,26.5,23.2,47.7,50,47.7c27.6,0,50.1-22.5,50.1-50.1
				V55.7C512,28,489.5,5.6,461.9,5.6z M66.8,269.8c-19.4-6.9-33.4-25.5-33.4-47.2s14-40.3,33.4-47.2V269.8z M178.5,473
				c-8.2,0-15.1-5.9-16.5-13.9l-20.2-119.6c11.1,0,22.2,0.3,33.4,0.9l19,114C195.9,464.2,188.4,473,178.5,473z M197,308.4
				c-19.4-1.5-38.8-2.3-57.9-2.3h-22.3c-9.2,0-16.7-7.5-16.7-16.7V155.8c0-9.2,7.5-16.7,16.7-16.7h22.3c19.1,0,38.5-0.8,57.9-2.3
				V308.4z M411.8,356.6c-44.6-15.3-94-34.5-181.4-45V133.5c86.6-10.4,135.5-29.2,181.4-45V356.6z M478.6,389.6
				c0,9.2-7.5,16.7-16.7,16.7s-16.7-7.5-16.7-16.7c0-4.3,0-329.3,0-333.9c0-9.2,7.5-16.7,16.7-16.7s16.7,7.5,16.7,16.7V389.6z"/>
		</g>
	</g>
</g>
</svg>
